<?xml version="1.0" encoding="UTF-8" standalone="no"?><!DOCTYPE svg PUBLIC "-//W3C//DTD SVG 1.1//EN" "http://www.w3.org/Graphics/SVG/1.1/DTD/svg11.dtd"><svg width="692px" height="669px" version="1.1" xmlns="http://www.w3.org/2000/svg" xmlns:xlink="http://www.w3.org/1999/xlink" xml:space="preserve" xmlns:serif="http://www.serif.com/" style="fill-rule:evenodd;clip-rule:evenodd;stroke-linecap:round;stroke-linejoin:round;stroke-miterlimit:1.5;"><g transform="matrix(1,0,0,1,2,2)"><g transform="matrix(0.570493,0,0,0.546891,0,0)"><g transform="matrix(1.75287,0,0,1.82852,-452.205,-153.466)"><path d="M555.443,697.369L631.969,747.975L709.729,670.215L709.729,623.312L820.814,572.706L876.357,483.838L873.889,402.375L945.477,336.958L939.306,265.369L686.277,166.626L662.826,98.741L627.031,134.535L533.226,149.346L509.774,83.929L424.609,103.678L443.123,134.535L407.329,157.986L370.3,128.363L333.272,166.626L333.272,249.323L257.98,290.055L341.912,376.455L398.689,366.58L490.026,419.504L539.397,550.489L607.836,606.032L555.443,697.369Z" style="fill:rgb(238,238,238);stroke:black;stroke-width:4px;"/></g></g></g></svg>