<?xml version="1.0" encoding="UTF-8" standalone="no"?><!DOCTYPE svg PUBLIC "-//W3C//DTD SVG 1.1//EN" "http://www.w3.org/Graphics/SVG/1.1/DTD/svg11.dtd"><svg width="502px" height="340px" version="1.1" xmlns="http://www.w3.org/2000/svg" xmlns:xlink="http://www.w3.org/1999/xlink" xml:space="preserve" xmlns:serif="http://www.serif.com/" style="fill-rule:evenodd;clip-rule:evenodd;stroke-linecap:round;stroke-linejoin:round;stroke-miterlimit:1.5;"><g transform="matrix(1,0,0,1,2,2)"><g transform="matrix(0.570493,0,0,0.546891,0,0)"><g transform="matrix(1.75287,0,0,1.82852,-452.205,-153.466)"><path d="M755.543,397.248L679.02,394.406L674.082,341.085L567.44,341.085L544.59,303.96L535.77,330.826L489.334,328.812L485.696,362.418L511.932,370.569L489.937,419.504L398.264,366.59L341.641,376.195L257.98,290.282L333.272,249.323L333.272,166.626L370.3,128.363L407.329,157.986L443.123,134.535L424.609,103.678L509.774,83.929L533.226,149.346L627.031,134.535L662.826,98.741L686.277,166.626L754.434,193.224L714.666,262.868L753.99,355.896L755.543,397.248Z" style="fill:rgb(238,238,238);stroke:black;stroke-width:4px;"/></g></g></g></svg>